<?xml version="1.0" standalone="no"?>
<!DOCTYPE svg PUBLIC "-//W3C//DTD SVG 20010904//EN"
 "http://www.w3.org/TR/2001/REC-SVG-20010904/DTD/svg10.dtd">
<svg version="1.0" xmlns="http://www.w3.org/2000/svg"
 width="260.000000pt" height="260.000000pt" viewBox="0 0 260.000000 260.000000"
 preserveAspectRatio="xMidYMid meet">
<metadata>
Created by potrace 1.11, written by Peter Selinger 2001-2013
</metadata>
<g transform="translate(0.000000,260.000000) scale(0.100000,-0.100000)"
fill="#000000" stroke="none">
<path d="M0 1300 l0 -1300 1300 0 1300 0 0 1300 0 1300 -1300 0 -1300 0 0
-1300z m1022 880 l-3 -120 125 0 c119 0 126 -1 126 -20 0 -18 -7 -20 -85 -20
l-86 0 3 -117 3 -118 61 -3 c67 -3 74 3 74 71 0 24 2 26 19 17 16 -8 19 -17
14 -48 -11 -72 -24 -82 -111 -82 -47 0 -83 5 -90 12 -8 8 -12 54 -12 140 l0
128 -72 -1 c-40 -1 -66 -3 -57 -6 15 -4 15 -10 -2 -71 -10 -37 -19 -70 -19
-74 0 -5 -17 -26 -37 -49 -40 -45 -107 -83 -129 -75 -18 7 -18 36 -1 36 7 0
32 12 55 28 48 31 87 100 95 170 l5 42 -84 0 c-77 0 -84 2 -84 20 0 19 7 20
125 20 l125 0 0 120 c0 118 0 120 23 120 22 0 22 -1 19 -120z m589 57 c11 -21
17 -42 14 -47 -4 -6 16 -10 49 -10 31 0 55 4 54 8 -2 5 9 31 25 59 22 41 31
50 47 46 26 -7 26 -7 -10 -64 l-30 -49 50 0 c43 0 50 -3 50 -20 0 -18 -7 -20
-80 -20 l-80 0 0 -45 0 -45 70 0 c63 0 70 -2 70 -20 0 -18 -7 -20 -70 -20
l-70 0 0 -45 0 -45 91 0 c81 0 90 -2 87 -17 -3 -15 -17 -18 -91 -21 l-87 -3 0
-69 c0 -63 -2 -70 -20 -70 -18 0 -20 7 -20 70 l0 70 -85 0 c-78 0 -85 2 -85
20 0 18 7 20 85 20 l85 0 0 45 0 44 -67 3 c-55 2 -68 6 -71 21 -3 15 5 17 67
17 l71 0 0 45 0 44 -77 3 c-65 3 -78 6 -81 21 -3 14 4 17 42 17 25 0 46 3 46
7 0 3 -11 26 -25 49 -23 40 -24 44 -8 53 20 11 22 8 54 -52z m-178 23 c49 -31
55 -41 35 -57 -19 -15 -122 59 -106 75 16 16 18 16 71 -18z m-245 -75 c-42
-81 -48 -87 -66 -76 -9 5 -2 29 25 88 34 73 39 80 59 71 20 -9 20 -11 -18 -83z
m-331 19 c29 -52 41 -94 29 -94 -2 0 -11 -3 -20 -6 -10 -4 -16 -1 -16 7 0 8
-14 43 -30 77 -29 62 -31 87 -7 79 7 -2 26 -30 44 -63z m549 -110 c46 -27 49
-31 35 -52 -7 -12 -29 -2 -120 54 -1 2 0 7 4 13 10 17 33 13 81 -15z m21 -246
c-28 -54 -54 -98 -58 -98 -4 0 -12 6 -18 14 -10 11 -1 32 39 102 27 49 50 92
50 96 0 5 9 3 20 -4 18 -12 17 -16 -33 -110z m-753 -709 c-9 -16 -20 -10 -53
31 -46 57 -28 76 21 21 21 -24 35 -47 32 -52z m1775 47 c23 -23 32 -40 27 -51
-5 -14 -13 -9 -46 26 -21 24 -39 47 -40 52 -1 18 29 4 59 -27z m-1855 -77 c-9
-16 -20 -10 -53 31 -46 57 -28 76 21 21 21 -24 35 -47 32 -52z m1038 11 l-4
-80 106 0 c99 0 106 -1 106 -20 0 -18 -8 -20 -107 -22 l-108 -3 -7 -57 c-11
-86 -43 -150 -103 -208 -55 -51 -72 -59 -92 -39 -9 9 -2 19 26 40 72 51 111
121 126 223 l7 46 -121 0 c-114 0 -121 1 -121 20 0 19 7 20 120 20 l120 0 0
80 0 80 28 0 27 0 -3 -80z m773 -20 c-10 -16 -18 -12 -53 30 -47 57 -30 75 20
21 21 -23 36 -46 33 -51z m-352 63 c-15 -5 -19 -193 -5 -193 16 0 122 39 208
76 81 35 86 35 99 18 12 -17 8 -21 -43 -43 -32 -13 -104 -41 -162 -62 l-105
-37 0 -71 c0 -106 0 -106 201 -106 159 0 165 -1 162 -20 -3 -19 -11 -20 -175
-20 l-173 0 -27 28 -28 27 -3 209 -3 208 33 -5 c18 -3 27 -7 21 -9z m-919 -19
c14 -5 10 -17 -21 -76 -20 -38 -48 -86 -63 -106 l-27 -37 111 -106 c101 -97
109 -107 90 -117 -17 -9 -32 1 -119 84 -54 52 -102 94 -107 94 -5 0 -33 -24
-63 -54 -60 -60 -156 -136 -172 -136 -6 0 -16 6 -22 14 -9 10 0 21 43 49 101
67 212 191 270 302 l26 50 -145 3 c-137 2 -145 4 -145 22 0 19 7 20 164 20 90
0 171 -3 180 -6z m-848 -30 c18 -5 20 -10 13 -32 -5 -15 -20 -69 -34 -119 -24
-90 -84 -225 -105 -238 -6 -3 -19 -4 -29 0 -18 5 -17 10 15 63 37 61 74 168
94 270 7 34 15 62 19 62 3 0 16 -3 27 -6z m266 -111 c78 -163 113 -264 96
-275 -24 -14 -38 -8 -44 20 -11 42 -61 168 -106 265 -35 74 -40 90 -27 98 7 5
17 9 20 9 3 0 31 -53 61 -117z"/>
</g>
</svg>
